<mxfile host="app.diagrams.net" modified="2023-04-20T03:50:49.263Z" agent="Mozilla/5.0 (Windows NT 10.0; Win64; x64) AppleWebKit/537.36 (KHTML, like Gecko) Chrome/112.0.0.0 Safari/537.36 Edg/112.0.1722.48" etag="iKzWB_XmxD7kxGRqpaQP" version="21.2.1" type="device">
  <diagram id="R2lEEEUBdFMjLlhIrx00" name="Page-1">
    <mxGraphModel dx="699" dy="368" grid="0" gridSize="10" guides="1" tooltips="1" connect="1" arrows="1" fold="1" page="1" pageScale="1" pageWidth="1654" pageHeight="1169" background="none" math="0" shadow="0" extFonts="Permanent Marker^https://fonts.googleapis.com/css?family=Permanent+Marker">
      <root>
        <mxCell id="0" />
        <mxCell id="1" parent="0" />
        <mxCell id="TJj4BuZzhcZqVVcRP8aC-71" style="edgeStyle=orthogonalEdgeStyle;shape=link;rounded=0;orthogonalLoop=1;jettySize=auto;html=1;entryX=0.5;entryY=1;entryDx=0;entryDy=0;labelBackgroundColor=default;strokeColor=default;fontFamily=Helvetica;fontSize=14;fontColor=default;endArrow=none;endFill=0;strokeWidth=2;fontStyle=1" parent="1" source="TJj4BuZzhcZqVVcRP8aC-58" target="TJj4BuZzhcZqVVcRP8aC-66" edge="1">
          <mxGeometry relative="1" as="geometry" />
        </mxCell>
        <mxCell id="TJj4BuZzhcZqVVcRP8aC-58" value="post" style="swimlane;fontStyle=1;childLayout=stackLayout;horizontal=1;startSize=26;horizontalStack=0;resizeParent=1;resizeParentMax=0;resizeLast=0;collapsible=1;marginBottom=0;align=center;fontSize=14;fillStyle=auto;swimlaneLine=1;glass=0;shadow=0;rounded=0;fixDash=0;direction=east;strokeWidth=2;fillColor=#b1ddf0;strokeColor=#10739e;" parent="1" vertex="1">
          <mxGeometry x="652" y="470" width="160" height="176" as="geometry">
            <mxRectangle x="740" y="400" width="80" height="30" as="alternateBounds" />
          </mxGeometry>
        </mxCell>
        <mxCell id="TJj4BuZzhcZqVVcRP8aC-59" value="&lt;span style=&quot;font-size: 14px;&quot;&gt;post_id&lt;/span&gt;" style="text;strokeColor=none;fillColor=none;spacingLeft=4;spacingRight=4;overflow=hidden;rotatable=0;points=[[0,0.5],[1,0.5]];portConstraint=eastwest;fontSize=14;whiteSpace=wrap;html=1;fontStyle=5;strokeWidth=2;" parent="TJj4BuZzhcZqVVcRP8aC-58" vertex="1">
          <mxGeometry y="26" width="160" height="30" as="geometry" />
        </mxCell>
        <mxCell id="TJj4BuZzhcZqVVcRP8aC-60" value="title" style="text;strokeColor=none;fillColor=none;spacingLeft=4;spacingRight=4;overflow=hidden;rotatable=0;points=[[0,0.5],[1,0.5]];portConstraint=eastwest;fontSize=14;whiteSpace=wrap;html=1;fontStyle=1;strokeWidth=2;" parent="TJj4BuZzhcZqVVcRP8aC-58" vertex="1">
          <mxGeometry y="56" width="160" height="30" as="geometry" />
        </mxCell>
        <mxCell id="TJj4BuZzhcZqVVcRP8aC-61" value="content" style="text;strokeColor=none;fillColor=none;spacingLeft=4;spacingRight=4;overflow=hidden;rotatable=0;points=[[0,0.5],[1,0.5]];portConstraint=eastwest;fontSize=14;whiteSpace=wrap;html=1;strokeWidth=2;fontStyle=1" parent="TJj4BuZzhcZqVVcRP8aC-58" vertex="1">
          <mxGeometry y="86" width="160" height="30" as="geometry" />
        </mxCell>
        <mxCell id="TJj4BuZzhcZqVVcRP8aC-62" value="post_time" style="text;strokeColor=none;fillColor=none;spacingLeft=4;spacingRight=4;overflow=hidden;rotatable=0;points=[[0,0.5],[1,0.5]];portConstraint=eastwest;fontSize=14;whiteSpace=wrap;html=1;strokeWidth=2;fontStyle=1" parent="TJj4BuZzhcZqVVcRP8aC-58" vertex="1">
          <mxGeometry y="116" width="160" height="30" as="geometry" />
        </mxCell>
        <mxCell id="TJj4BuZzhcZqVVcRP8aC-63" value="post_city" style="text;strokeColor=none;fillColor=none;spacingLeft=4;spacingRight=4;overflow=hidden;rotatable=0;points=[[0,0.5],[1,0.5]];portConstraint=eastwest;fontSize=14;whiteSpace=wrap;html=1;strokeWidth=2;fontStyle=1" parent="TJj4BuZzhcZqVVcRP8aC-58" vertex="1">
          <mxGeometry y="146" width="160" height="30" as="geometry" />
        </mxCell>
        <mxCell id="TJj4BuZzhcZqVVcRP8aC-70" style="edgeStyle=orthogonalEdgeStyle;shape=connector;rounded=0;orthogonalLoop=1;jettySize=auto;html=1;labelBackgroundColor=default;strokeColor=default;fontFamily=Helvetica;fontSize=14;fontColor=default;endArrow=classic;strokeWidth=2;fontStyle=1" parent="1" source="TJj4BuZzhcZqVVcRP8aC-66" edge="1">
          <mxGeometry relative="1" as="geometry">
            <mxPoint x="732" y="305" as="targetPoint" />
          </mxGeometry>
        </mxCell>
        <mxCell id="TJj4BuZzhcZqVVcRP8aC-66" value="aut_pos" style="shape=rhombus;perimeter=rhombusPerimeter;whiteSpace=wrap;html=1;align=center;strokeWidth=2;fontSize=14;fontStyle=1;fillColor=#F0FBFF;" parent="1" vertex="1">
          <mxGeometry x="672" y="350" width="120" height="60" as="geometry" />
        </mxCell>
        <mxCell id="TJj4BuZzhcZqVVcRP8aC-72" value="categories" style="swimlane;fontStyle=1;childLayout=stackLayout;horizontal=1;startSize=26;horizontalStack=0;resizeParent=1;resizeParentMax=0;resizeLast=0;collapsible=1;marginBottom=0;align=center;fontSize=14;strokeWidth=2;fillColor=#b1ddf0;strokeColor=#10739e;" parent="1" vertex="1">
          <mxGeometry x="894" y="692" width="160" height="86" as="geometry" />
        </mxCell>
        <mxCell id="TJj4BuZzhcZqVVcRP8aC-73" value="&lt;u style=&quot;font-size: 14px;&quot;&gt;category_id&lt;/u&gt;" style="text;strokeColor=none;fillColor=none;spacingLeft=4;spacingRight=4;overflow=hidden;rotatable=0;points=[[0,0.5],[1,0.5]];portConstraint=eastwest;fontSize=14;whiteSpace=wrap;html=1;fontStyle=1;strokeWidth=2;" parent="TJj4BuZzhcZqVVcRP8aC-72" vertex="1">
          <mxGeometry y="26" width="160" height="30" as="geometry" />
        </mxCell>
        <mxCell id="TJj4BuZzhcZqVVcRP8aC-74" value="category_name" style="text;strokeColor=none;fillColor=none;spacingLeft=4;spacingRight=4;overflow=hidden;rotatable=0;points=[[0,0.5],[1,0.5]];portConstraint=eastwest;fontSize=14;whiteSpace=wrap;html=1;strokeWidth=2;fontStyle=1" parent="TJj4BuZzhcZqVVcRP8aC-72" vertex="1">
          <mxGeometry y="56" width="160" height="30" as="geometry" />
        </mxCell>
        <mxCell id="e0K9_U_sGP0jVdVus5Va-16" style="edgeStyle=orthogonalEdgeStyle;rounded=0;orthogonalLoop=1;jettySize=auto;html=1;entryX=0.512;entryY=1.013;entryDx=0;entryDy=0;entryPerimeter=0;endArrow=none;endFill=0;strokeWidth=2;fontSize=14;fontStyle=1" parent="1" source="TJj4BuZzhcZqVVcRP8aC-81" target="TJj4BuZzhcZqVVcRP8aC-63" edge="1">
          <mxGeometry relative="1" as="geometry">
            <mxPoint x="734" y="660" as="targetPoint" />
          </mxGeometry>
        </mxCell>
        <mxCell id="e0K9_U_sGP0jVdVus5Va-17" style="edgeStyle=orthogonalEdgeStyle;rounded=0;orthogonalLoop=1;jettySize=auto;html=1;entryX=-0.005;entryY=0.715;entryDx=0;entryDy=0;entryPerimeter=0;endArrow=none;endFill=0;strokeWidth=2;fontSize=14;fontStyle=1" parent="1" source="TJj4BuZzhcZqVVcRP8aC-81" target="TJj4BuZzhcZqVVcRP8aC-73" edge="1">
          <mxGeometry relative="1" as="geometry" />
        </mxCell>
        <mxCell id="TJj4BuZzhcZqVVcRP8aC-81" value="pos_cat" style="shape=rhombus;perimeter=rhombusPerimeter;whiteSpace=wrap;html=1;align=center;strokeWidth=2;fontSize=14;fontStyle=1;fillColor=#F0FBFF;" parent="1" vertex="1">
          <mxGeometry x="674" y="710" width="120" height="60" as="geometry" />
        </mxCell>
        <mxCell id="e0K9_U_sGP0jVdVus5Va-12" style="edgeStyle=orthogonalEdgeStyle;rounded=0;orthogonalLoop=1;jettySize=auto;html=1;entryX=0.5;entryY=1;entryDx=0;entryDy=0;shape=link;strokeWidth=2;fontSize=14;fontStyle=1" parent="1" source="TJj4BuZzhcZqVVcRP8aC-145" edge="1">
          <mxGeometry relative="1" as="geometry">
            <mxPoint x="1116" y="340" as="targetPoint" />
          </mxGeometry>
        </mxCell>
        <mxCell id="TJj4BuZzhcZqVVcRP8aC-145" value="first_reply" style="swimlane;fontStyle=1;childLayout=stackLayout;horizontal=1;startSize=26;horizontalStack=0;resizeParent=1;resizeParentMax=0;resizeLast=0;collapsible=1;marginBottom=0;align=center;fontSize=14;fillStyle=auto;swimlaneLine=1;glass=0;shadow=0;rounded=0;fixDash=0;direction=east;strokeWidth=2;fillColor=#b1ddf0;strokeColor=#10739e;" parent="1" vertex="1">
          <mxGeometry x="1036" y="518" width="160" height="146" as="geometry">
            <mxRectangle x="740" y="400" width="80" height="30" as="alternateBounds" />
          </mxGeometry>
        </mxCell>
        <mxCell id="TJj4BuZzhcZqVVcRP8aC-148" value="first_id" style="text;strokeColor=none;fillColor=none;spacingLeft=4;spacingRight=4;overflow=hidden;rotatable=0;points=[[0,0.5],[1,0.5]];portConstraint=eastwest;fontSize=14;whiteSpace=wrap;html=1;fontStyle=5;strokeWidth=2;" parent="TJj4BuZzhcZqVVcRP8aC-145" vertex="1">
          <mxGeometry y="26" width="160" height="30" as="geometry" />
        </mxCell>
        <mxCell id="TJj4BuZzhcZqVVcRP8aC-150" value="reply_content" style="text;strokeColor=none;fillColor=none;spacingLeft=4;spacingRight=4;overflow=hidden;rotatable=0;points=[[0,0.5],[1,0.5]];portConstraint=eastwest;fontSize=14;whiteSpace=wrap;html=1;strokeWidth=2;fontStyle=1" parent="TJj4BuZzhcZqVVcRP8aC-145" vertex="1">
          <mxGeometry y="56" width="160" height="30" as="geometry" />
        </mxCell>
        <mxCell id="TJj4BuZzhcZqVVcRP8aC-151" value="reply_stars" style="text;strokeColor=none;fillColor=none;spacingLeft=4;spacingRight=4;overflow=hidden;rotatable=0;points=[[0,0.5],[1,0.5]];portConstraint=eastwest;fontSize=14;whiteSpace=wrap;html=1;strokeWidth=2;fontStyle=1" parent="TJj4BuZzhcZqVVcRP8aC-145" vertex="1">
          <mxGeometry y="86" width="160" height="30" as="geometry" />
        </mxCell>
        <mxCell id="TJj4BuZzhcZqVVcRP8aC-152" value="reply_author" style="text;strokeColor=none;fillColor=none;spacingLeft=4;spacingRight=4;overflow=hidden;rotatable=0;points=[[0,0.5],[1,0.5]];portConstraint=eastwest;fontSize=14;whiteSpace=wrap;html=1;strokeWidth=2;fontStyle=1" parent="TJj4BuZzhcZqVVcRP8aC-145" vertex="1">
          <mxGeometry y="116" width="160" height="30" as="geometry" />
        </mxCell>
        <mxCell id="e0K9_U_sGP0jVdVus5Va-13" style="edgeStyle=orthogonalEdgeStyle;rounded=0;orthogonalLoop=1;jettySize=auto;html=1;entryX=0.5;entryY=1;entryDx=0;entryDy=0;shape=link;strokeWidth=2;fontSize=14;fontStyle=1" parent="1" source="TJj4BuZzhcZqVVcRP8aC-153" edge="1">
          <mxGeometry relative="1" as="geometry">
            <mxPoint x="1525" y="349" as="targetPoint" />
          </mxGeometry>
        </mxCell>
        <mxCell id="e0K9_U_sGP0jVdVus5Va-6" style="edgeStyle=orthogonalEdgeStyle;rounded=0;orthogonalLoop=1;jettySize=auto;html=1;exitX=1;exitY=0.5;exitDx=0;exitDy=0;endArrow=classic;endFill=1;shape=link;strokeWidth=2;fontSize=14;fontStyle=1" parent="1" source="TJj4BuZzhcZqVVcRP8aC-159" target="TJj4BuZzhcZqVVcRP8aC-148" edge="1">
          <mxGeometry relative="1" as="geometry" />
        </mxCell>
        <mxCell id="e0K9_U_sGP0jVdVus5Va-7" style="edgeStyle=orthogonalEdgeStyle;rounded=0;orthogonalLoop=1;jettySize=auto;html=1;exitX=0;exitY=0.5;exitDx=0;exitDy=0;entryX=1.005;entryY=0.081;entryDx=0;entryDy=0;entryPerimeter=0;endArrow=classic;endFill=1;startArrow=none;startFill=0;strokeWidth=2;fontSize=14;fontStyle=1" parent="1" source="TJj4BuZzhcZqVVcRP8aC-159" target="TJj4BuZzhcZqVVcRP8aC-61" edge="1">
          <mxGeometry relative="1" as="geometry">
            <mxPoint x="820" y="559.3478260869567" as="targetPoint" />
          </mxGeometry>
        </mxCell>
        <mxCell id="TJj4BuZzhcZqVVcRP8aC-159" value="pos_rep" style="shape=rhombus;perimeter=rhombusPerimeter;whiteSpace=wrap;html=1;align=center;strokeWidth=2;fontSize=14;fontStyle=1;fillColor=#F0FBFF;" parent="1" vertex="1">
          <mxGeometry x="856" y="529" width="120" height="60" as="geometry" />
        </mxCell>
        <mxCell id="e0K9_U_sGP0jVdVus5Va-3" style="edgeStyle=orthogonalEdgeStyle;rounded=0;orthogonalLoop=1;jettySize=auto;html=1;exitX=1;exitY=0.5;exitDx=0;exitDy=0;shape=link;strokeWidth=2;fontSize=14;fontStyle=1" parent="1" target="TJj4BuZzhcZqVVcRP8aC-154" edge="1">
          <mxGeometry relative="1" as="geometry">
            <mxPoint x="1380" y="559" as="sourcePoint" />
          </mxGeometry>
        </mxCell>
        <mxCell id="e0K9_U_sGP0jVdVus5Va-8" style="edgeStyle=orthogonalEdgeStyle;rounded=0;orthogonalLoop=1;jettySize=auto;html=1;exitX=0;exitY=0.5;exitDx=0;exitDy=0;strokeWidth=2;fontSize=14;fontStyle=1" parent="1" target="TJj4BuZzhcZqVVcRP8aC-148" edge="1">
          <mxGeometry relative="1" as="geometry">
            <mxPoint x="1260" y="559" as="sourcePoint" />
          </mxGeometry>
        </mxCell>
        <mxCell id="n1rgnUxkbgNFh2ybbX47-4" style="edgeStyle=orthogonalEdgeStyle;shape=connector;rounded=0;orthogonalLoop=1;jettySize=auto;html=1;labelBackgroundColor=default;strokeColor=default;fontFamily=Helvetica;fontSize=14;fontColor=default;endArrow=none;startSize=26;endFill=0;strokeWidth=2;fontStyle=1" parent="1" target="TJj4BuZzhcZqVVcRP8aC-28" edge="1">
          <mxGeometry relative="1" as="geometry">
            <mxPoint x="102.05882352941171" y="350.0294117647061" as="sourcePoint" />
          </mxGeometry>
        </mxCell>
        <mxCell id="n1rgnUxkbgNFh2ybbX47-9" style="edgeStyle=orthogonalEdgeStyle;shape=link;rounded=0;orthogonalLoop=1;jettySize=auto;html=1;labelBackgroundColor=default;strokeColor=default;fontFamily=Helvetica;fontSize=14;fontColor=default;endArrow=none;endFill=0;strokeWidth=2;fontStyle=1" parent="1" target="TJj4BuZzhcZqVVcRP8aC-61" edge="1">
          <mxGeometry relative="1" as="geometry">
            <mxPoint x="102.05882352941171" y="409.97058823529414" as="sourcePoint" />
          </mxGeometry>
        </mxCell>
        <mxCell id="n1rgnUxkbgNFh2ybbX47-1" value="aut_sha" style="shape=rhombus;perimeter=rhombusPerimeter;whiteSpace=wrap;html=1;align=center;fontSize=14;fontStyle=1;strokeWidth=2;fillColor=#F0FBFF;" parent="1" vertex="1">
          <mxGeometry x="42" y="352" width="120" height="60" as="geometry" />
        </mxCell>
        <mxCell id="n1rgnUxkbgNFh2ybbX47-5" style="edgeStyle=orthogonalEdgeStyle;shape=connector;rounded=0;orthogonalLoop=1;jettySize=auto;html=1;labelBackgroundColor=default;strokeColor=default;fontFamily=Helvetica;fontSize=14;fontColor=default;endArrow=none;startSize=26;endFill=0;strokeWidth=2;fontStyle=1" parent="1" source="n1rgnUxkbgNFh2ybbX47-2" target="TJj4BuZzhcZqVVcRP8aC-29" edge="1">
          <mxGeometry relative="1" as="geometry" />
        </mxCell>
        <mxCell id="n1rgnUxkbgNFh2ybbX47-8" style="edgeStyle=orthogonalEdgeStyle;shape=link;rounded=0;orthogonalLoop=1;jettySize=auto;html=1;labelBackgroundColor=default;strokeColor=default;fontFamily=Helvetica;fontSize=14;fontColor=default;endArrow=none;endFill=0;entryX=0;entryY=0.5;entryDx=0;entryDy=0;strokeWidth=2;fontStyle=1" parent="1" source="n1rgnUxkbgNFh2ybbX47-2" target="TJj4BuZzhcZqVVcRP8aC-60" edge="1">
          <mxGeometry relative="1" as="geometry" />
        </mxCell>
        <mxCell id="n1rgnUxkbgNFh2ybbX47-2" value="aut_lik" style="shape=rhombus;perimeter=rhombusPerimeter;whiteSpace=wrap;html=1;align=center;strokeWidth=2;fontSize=14;fontStyle=1;fillColor=#F0FBFF;" parent="1" vertex="1">
          <mxGeometry x="232" y="350" width="120" height="60" as="geometry" />
        </mxCell>
        <mxCell id="n1rgnUxkbgNFh2ybbX47-6" style="edgeStyle=orthogonalEdgeStyle;shape=connector;rounded=0;orthogonalLoop=1;jettySize=auto;html=1;labelBackgroundColor=default;strokeColor=default;fontFamily=Helvetica;fontSize=14;fontColor=default;endArrow=none;startSize=26;endFill=0;strokeWidth=2;fontStyle=1" parent="1" source="n1rgnUxkbgNFh2ybbX47-3" target="TJj4BuZzhcZqVVcRP8aC-30" edge="1">
          <mxGeometry relative="1" as="geometry" />
        </mxCell>
        <mxCell id="n1rgnUxkbgNFh2ybbX47-7" style="edgeStyle=orthogonalEdgeStyle;shape=link;rounded=0;orthogonalLoop=1;jettySize=auto;html=1;labelBackgroundColor=default;strokeColor=default;fontFamily=Helvetica;fontSize=14;fontColor=default;endArrow=none;endFill=0;strokeWidth=2;fontStyle=1" parent="1" source="n1rgnUxkbgNFh2ybbX47-3" target="TJj4BuZzhcZqVVcRP8aC-59" edge="1">
          <mxGeometry relative="1" as="geometry" />
        </mxCell>
        <mxCell id="n1rgnUxkbgNFh2ybbX47-3" value="aut_fav" style="shape=rhombus;perimeter=rhombusPerimeter;whiteSpace=wrap;html=1;align=center;strokeWidth=2;fontSize=14;fontStyle=1;fillColor=#F0FBFF;" parent="1" vertex="1">
          <mxGeometry x="422" y="350" width="120" height="60" as="geometry" />
        </mxCell>
        <mxCell id="e0K9_U_sGP0jVdVus5Va-14" style="edgeStyle=orthogonalEdgeStyle;rounded=0;orthogonalLoop=1;jettySize=auto;html=1;strokeWidth=2;fontSize=14;fontStyle=1" parent="1" target="TJj4BuZzhcZqVVcRP8aC-29" edge="1">
          <mxGeometry relative="1" as="geometry">
            <mxPoint x="1116" y="280" as="sourcePoint" />
          </mxGeometry>
        </mxCell>
        <mxCell id="e0K9_U_sGP0jVdVus5Va-15" style="edgeStyle=orthogonalEdgeStyle;rounded=0;orthogonalLoop=1;jettySize=auto;html=1;strokeWidth=2;fontSize=14;fontStyle=1" parent="1" target="TJj4BuZzhcZqVVcRP8aC-28" edge="1">
          <mxGeometry relative="1" as="geometry">
            <mxPoint x="1525" y="289" as="sourcePoint" />
          </mxGeometry>
        </mxCell>
        <mxCell id="e0K9_U_sGP0jVdVus5Va-18" value="aut_rep" style="shape=rhombus;perimeter=rhombusPerimeter;whiteSpace=wrap;html=1;align=center;strokeWidth=2;fontSize=14;fontStyle=1;fillColor=#F0FBFF;" parent="1" vertex="1">
          <mxGeometry x="1056" y="280" width="120" height="60" as="geometry" />
        </mxCell>
        <mxCell id="e0K9_U_sGP0jVdVus5Va-19" value="aut_sur" style="shape=rhombus;perimeter=rhombusPerimeter;whiteSpace=wrap;html=1;align=center;strokeWidth=2;fontSize=14;fontStyle=1;fillColor=#F0FBFF;" parent="1" vertex="1">
          <mxGeometry x="1465" y="290" width="120" height="60" as="geometry" />
        </mxCell>
        <mxCell id="e0K9_U_sGP0jVdVus5Va-27" style="edgeStyle=orthogonalEdgeStyle;rounded=0;orthogonalLoop=1;jettySize=auto;html=1;exitX=0;exitY=0;exitDx=0;exitDy=0;entryX=1;entryY=0.5;entryDx=0;entryDy=0;endArrow=none;endFill=0;strokeWidth=2;fontSize=14;fontStyle=1" parent="1" source="e0K9_U_sGP0jVdVus5Va-26" target="TJj4BuZzhcZqVVcRP8aC-31" edge="1">
          <mxGeometry relative="1" as="geometry" />
        </mxCell>
        <mxCell id="e0K9_U_sGP0jVdVus5Va-28" style="edgeStyle=orthogonalEdgeStyle;rounded=0;orthogonalLoop=1;jettySize=auto;html=1;exitX=0;exitY=1;exitDx=0;exitDy=0;entryX=1;entryY=0.5;entryDx=0;entryDy=0;endArrow=none;endFill=0;strokeWidth=2;fontSize=14;fontStyle=1" parent="1" source="e0K9_U_sGP0jVdVus5Va-26" target="TJj4BuZzhcZqVVcRP8aC-32" edge="1">
          <mxGeometry relative="1" as="geometry" />
        </mxCell>
        <mxCell id="e0K9_U_sGP0jVdVus5Va-26" value="aut_fol" style="shape=rhombus;perimeter=rhombusPerimeter;whiteSpace=wrap;html=1;align=center;strokeWidth=2;fontSize=14;fontStyle=1;fillColor=#F0FBFF;" parent="1" vertex="1">
          <mxGeometry x="918" y="246" width="120" height="60" as="geometry" />
        </mxCell>
        <mxCell id="e0K9_U_sGP0jVdVus5Va-32" value="" style="group;strokeWidth=2;fontSize=14;fontStyle=1;fillColor=none;strokeColor=#10739e;" parent="1" vertex="1" connectable="0">
          <mxGeometry x="1440" y="510" width="170" height="160" as="geometry" />
        </mxCell>
        <mxCell id="e0K9_U_sGP0jVdVus5Va-31" value="" style="whiteSpace=wrap;html=1;aspect=fixed;strokeWidth=2;fontSize=14;fontStyle=1;fillColor=none;strokeColor=#10739e;" parent="e0K9_U_sGP0jVdVus5Va-32" vertex="1">
          <mxGeometry width="170" height="160" as="geometry" />
        </mxCell>
        <mxCell id="TJj4BuZzhcZqVVcRP8aC-153" value="sub_reply" style="swimlane;fontStyle=1;childLayout=stackLayout;horizontal=1;startSize=26;horizontalStack=0;resizeParent=1;resizeParentMax=0;resizeLast=0;collapsible=1;marginBottom=0;align=center;fontSize=14;fillStyle=auto;swimlaneLine=1;glass=0;shadow=0;rounded=0;fixDash=0;direction=east;strokeWidth=2;fillColor=#b1ddf0;strokeColor=#10739e;" parent="e0K9_U_sGP0jVdVus5Va-32" vertex="1">
          <mxGeometry x="5" y="8" width="160" height="146" as="geometry">
            <mxRectangle x="740" y="400" width="80" height="30" as="alternateBounds" />
          </mxGeometry>
        </mxCell>
        <mxCell id="TJj4BuZzhcZqVVcRP8aC-154" value="second_id" style="text;strokeColor=none;fillColor=none;spacingLeft=4;spacingRight=4;overflow=hidden;rotatable=0;points=[[0,0.5],[1,0.5]];portConstraint=eastwest;fontSize=14;whiteSpace=wrap;html=1;fontStyle=1;strokeWidth=2;" parent="TJj4BuZzhcZqVVcRP8aC-153" vertex="1">
          <mxGeometry y="26" width="160" height="30" as="geometry" />
        </mxCell>
        <mxCell id="e0K9_U_sGP0jVdVus5Va-34" value="" style="endArrow=none;html=1;rounded=0;labelBackgroundColor=default;strokeColor=default;fontFamily=Helvetica;fontSize=14;fontColor=default;startSize=26;shape=connector;strokeWidth=2;fontStyle=1;dashed=1;" parent="TJj4BuZzhcZqVVcRP8aC-153" edge="1">
          <mxGeometry relative="1" as="geometry">
            <mxPoint x="7" y="51" as="sourcePoint" />
            <mxPoint x="76" y="51" as="targetPoint" />
          </mxGeometry>
        </mxCell>
        <mxCell id="TJj4BuZzhcZqVVcRP8aC-156" value="second_content" style="text;strokeColor=none;fillColor=none;spacingLeft=4;spacingRight=4;overflow=hidden;rotatable=0;points=[[0,0.5],[1,0.5]];portConstraint=eastwest;fontSize=14;whiteSpace=wrap;html=1;strokeWidth=2;fontStyle=1" parent="TJj4BuZzhcZqVVcRP8aC-153" vertex="1">
          <mxGeometry y="56" width="160" height="30" as="geometry" />
        </mxCell>
        <mxCell id="e0K9_U_sGP0jVdVus5Va-40" value="" style="endArrow=none;html=1;rounded=0;labelBackgroundColor=default;strokeColor=default;fontFamily=Helvetica;fontSize=14;fontColor=default;startSize=26;shape=connector;strokeWidth=2;fontStyle=1;dashed=1;" parent="TJj4BuZzhcZqVVcRP8aC-153" edge="1">
          <mxGeometry relative="1" as="geometry">
            <mxPoint x="6" y="81" as="sourcePoint" />
            <mxPoint x="117" y="81" as="targetPoint" />
          </mxGeometry>
        </mxCell>
        <mxCell id="TJj4BuZzhcZqVVcRP8aC-157" value="second_stars" style="text;strokeColor=none;fillColor=none;spacingLeft=4;spacingRight=4;overflow=hidden;rotatable=0;points=[[0,0.5],[1,0.5]];portConstraint=eastwest;fontSize=14;whiteSpace=wrap;html=1;strokeWidth=2;fontStyle=1" parent="TJj4BuZzhcZqVVcRP8aC-153" vertex="1">
          <mxGeometry y="86" width="160" height="30" as="geometry" />
        </mxCell>
        <mxCell id="e0K9_U_sGP0jVdVus5Va-37" value="" style="endArrow=none;html=1;rounded=0;labelBackgroundColor=default;strokeColor=default;fontFamily=Helvetica;fontSize=14;fontColor=default;startSize=26;shape=connector;strokeWidth=2;fontStyle=1;dashed=1;" parent="TJj4BuZzhcZqVVcRP8aC-153" edge="1">
          <mxGeometry relative="1" as="geometry">
            <mxPoint x="7" y="111" as="sourcePoint" />
            <mxPoint x="99" y="111" as="targetPoint" />
          </mxGeometry>
        </mxCell>
        <mxCell id="TJj4BuZzhcZqVVcRP8aC-158" value="second_author" style="text;strokeColor=none;fillColor=none;spacingLeft=4;spacingRight=4;overflow=hidden;rotatable=0;points=[[0,0.5],[1,0.5]];portConstraint=eastwest;fontSize=14;whiteSpace=wrap;html=1;strokeWidth=2;fontStyle=1" parent="TJj4BuZzhcZqVVcRP8aC-153" vertex="1">
          <mxGeometry y="116" width="160" height="30" as="geometry" />
        </mxCell>
        <mxCell id="e0K9_U_sGP0jVdVus5Va-38" value="" style="endArrow=none;html=1;rounded=0;labelBackgroundColor=default;strokeColor=default;fontFamily=Helvetica;fontSize=14;fontColor=default;startSize=26;shape=connector;strokeWidth=2;fontStyle=1;dashed=1;" parent="TJj4BuZzhcZqVVcRP8aC-153" edge="1">
          <mxGeometry relative="1" as="geometry">
            <mxPoint x="6" y="140.79999999999995" as="sourcePoint" />
            <mxPoint x="110" y="140.79999999999995" as="targetPoint" />
          </mxGeometry>
        </mxCell>
        <mxCell id="e0K9_U_sGP0jVdVus5Va-33" value="fir_sub" style="shape=rhombus;double=1;perimeter=rhombusPerimeter;whiteSpace=wrap;html=1;align=center;strokeWidth=2;fontSize=14;fontStyle=1;fillColor=#F0FBFF;" parent="1" vertex="1">
          <mxGeometry x="1261" y="529" width="120" height="60" as="geometry" />
        </mxCell>
        <mxCell id="TJj4BuZzhcZqVVcRP8aC-27" value="author" style="swimlane;fontStyle=1;childLayout=stackLayout;horizontal=1;startSize=26;horizontalStack=0;resizeParent=1;resizeParentMax=0;resizeLast=0;collapsible=1;marginBottom=0;align=center;fontSize=14;strokeWidth=2;fillColor=#b1ddf0;strokeColor=#10739e;" parent="1" vertex="1">
          <mxGeometry x="644" y="130" width="180" height="176" as="geometry">
            <mxRectangle x="450" y="280" width="80" height="30" as="alternateBounds" />
          </mxGeometry>
        </mxCell>
        <mxCell id="TJj4BuZzhcZqVVcRP8aC-28" value="&lt;span style=&quot;font-size: 14px;&quot;&gt;author_id&lt;/span&gt;" style="text;strokeColor=none;fillColor=none;spacingLeft=4;spacingRight=4;overflow=hidden;rotatable=0;points=[[0,0.5],[1,0.5]];portConstraint=eastwest;fontSize=14;whiteSpace=wrap;html=1;fontStyle=1;strokeWidth=2;" parent="TJj4BuZzhcZqVVcRP8aC-27" vertex="1">
          <mxGeometry y="26" width="180" height="30" as="geometry" />
        </mxCell>
        <mxCell id="TJj4BuZzhcZqVVcRP8aC-29" value="author_name" style="text;strokeColor=none;fillColor=none;spacingLeft=4;spacingRight=4;overflow=hidden;rotatable=0;points=[[0,0.5],[1,0.5]];portConstraint=eastwest;fontSize=14;whiteSpace=wrap;html=1;fontStyle=5;strokeWidth=2;" parent="TJj4BuZzhcZqVVcRP8aC-27" vertex="1">
          <mxGeometry y="56" width="180" height="30" as="geometry" />
        </mxCell>
        <mxCell id="TJj4BuZzhcZqVVcRP8aC-30" value="author_registrartion_time" style="text;strokeColor=none;fillColor=none;spacingLeft=4;spacingRight=4;overflow=hidden;rotatable=0;points=[[0,0.5],[1,0.5]];portConstraint=eastwest;fontSize=14;whiteSpace=wrap;html=1;strokeWidth=2;fontStyle=1;verticalAlign=middle;" parent="TJj4BuZzhcZqVVcRP8aC-27" vertex="1">
          <mxGeometry y="86" width="180" height="30" as="geometry" />
        </mxCell>
        <mxCell id="TJj4BuZzhcZqVVcRP8aC-31" value="author_phone" style="text;strokeColor=none;fillColor=none;spacingLeft=4;spacingRight=4;overflow=hidden;rotatable=0;points=[[0,0.5],[1,0.5]];portConstraint=eastwest;fontSize=14;whiteSpace=wrap;html=1;strokeWidth=2;fontStyle=1" parent="TJj4BuZzhcZqVVcRP8aC-27" vertex="1">
          <mxGeometry y="116" width="180" height="30" as="geometry" />
        </mxCell>
        <mxCell id="TJj4BuZzhcZqVVcRP8aC-32" value="author_id_card" style="text;strokeColor=none;fillColor=none;spacingLeft=4;spacingRight=4;overflow=hidden;rotatable=0;points=[[0,0.5],[1,0.5]];portConstraint=eastwest;fontSize=14;whiteSpace=wrap;html=1;strokeWidth=2;fontStyle=1" parent="TJj4BuZzhcZqVVcRP8aC-27" vertex="1">
          <mxGeometry y="146" width="180" height="30" as="geometry" />
        </mxCell>
      </root>
    </mxGraphModel>
  </diagram>
</mxfile>
